<svg width="67" height="12" viewBox="0 0 67 12" fill="none" xmlns="http://www.w3.org/2000/svg">
<path d="M66.9117 0.0292969V2.81373H66.3801V0.654767C66.3693 0.653689 66.3585 0.651533 66.3477 0.650455C66.1849 1.36867 66.022 2.08581 65.856 2.81373H65.2812C65.1183 2.09228 64.9555 1.36651 64.7916 0.641827C64.7851 0.641827 64.7786 0.641827 64.7722 0.642905V2.8148H64.2297V0.0303747C64.508 0.0303747 64.7862 0.0303747 65.0633 0.0303747C65.0741 0.0681187 65.0871 0.104785 65.0957 0.143607C65.2434 0.778784 65.3912 1.41288 65.5389 2.04806C65.5465 2.08041 65.5616 2.11061 65.5842 2.17423C65.7535 1.43445 65.9153 0.732413 66.076 0.0303747C66.3542 0.0303747 66.6324 0.0303747 66.9096 0.0303747L66.9117 0.0292969Z" fill="black"/>
<path d="M63.9042 0.0293998V0.535168H63.0738V2.81275H62.4861V0.543795H61.6353V0.0283203C61.6353 0.0283203 63.1601 0.0283203 63.9042 0.0283203V0.0293998Z" fill="black"/>
<path d="M52.6887 9.54527C53.0651 8.98558 53.4307 8.44099 53.7898 7.90718C54.1952 8.14767 54.5889 8.39139 54.9933 8.61893C55.4721 8.88853 55.9735 9.10852 56.5214 9.19803C57.177 9.30587 57.8241 9.30695 58.4387 9.00823C58.8421 8.81196 59.1526 8.52942 59.2594 8.07326C59.3446 7.70768 59.2432 7.39926 58.951 7.1577C58.6814 6.93447 58.3622 6.80937 58.029 6.73388C57.3798 6.58722 56.7263 6.46213 56.0749 6.32733C55.4742 6.20439 54.8887 6.034 54.3462 5.74176C53.6507 5.36755 53.1061 4.84129 52.9109 4.06053C52.5065 2.44617 53.119 0.955819 54.8186 0.335739C55.6274 0.0413359 56.4685 -0.0158193 57.3226 0.0122191C58.6469 0.0564335 59.7738 0.592399 60.8091 1.371C60.8155 1.37532 60.8188 1.38394 60.8306 1.4012C60.4586 1.93177 60.0844 2.4645 59.7016 3.01017C59.6541 2.97997 59.6099 2.95194 59.5668 2.92282C58.9995 2.54646 58.4107 2.21 57.7432 2.04392C57.0304 1.86599 56.3208 1.85736 55.6381 2.16039C55.4354 2.25098 55.2381 2.3847 55.0795 2.54106C54.7183 2.89694 54.7646 3.43075 55.1583 3.74779C55.499 4.02171 55.9056 4.15112 56.3197 4.25141C57.0929 4.43689 57.8748 4.59326 58.6458 4.78845C59.0028 4.87904 59.3543 5.00845 59.6886 5.16481C60.7217 5.64794 61.2642 6.47399 61.3278 7.60954C61.3612 8.20051 61.2965 8.77961 61.0409 9.32312C60.6764 10.0996 60.0423 10.5654 59.2573 10.8512C58.5574 11.1046 57.8305 11.1683 57.0918 11.1618C55.7384 11.151 54.4994 10.7844 53.3821 10.0144C53.1567 9.85909 52.9292 9.70703 52.6898 9.54419L52.6887 9.54527Z" fill="black"/>
<path d="M49.0999 0.193359H51.1801C51.1844 0.223555 51.192 0.251594 51.192 0.278554C51.192 2.58741 51.192 4.89734 51.1866 7.20619C51.1844 7.78853 51.0701 8.35253 50.8404 8.89065C50.4102 9.8968 49.6596 10.5643 48.6265 10.8932C47.4241 11.2761 46.2065 11.2815 45.0084 10.8814C43.6356 10.4231 42.8333 9.4428 42.5572 8.03548C42.4893 7.6904 42.4591 7.33345 42.458 6.98189C42.4494 4.76146 42.4537 2.54104 42.4537 0.319532C42.4537 0.281788 42.4537 0.245122 42.4537 0.196594H44.5523V0.348649C44.5523 2.45584 44.5523 4.56196 44.5523 6.66915C44.5523 7.02934 44.5868 7.38413 44.6979 7.72814C44.9642 8.55635 45.6361 9.08477 46.5042 9.16133C46.9215 9.198 47.3313 9.17427 47.726 9.02977C48.4766 8.75262 48.8853 8.18754 49.0276 7.42295C49.0783 7.1512 49.0967 6.87081 49.0977 6.59366C49.1031 4.51667 49.101 2.43859 49.101 0.36159V0.194439L49.0999 0.193359Z" fill="black"/>
<path d="M11.3116 0.192383H17.5189V2.12811H13.3929V4.55559H17.1652V6.49779H13.3973V9.01908H17.6602V10.9559H11.3105V0.193461L11.3116 0.192383Z" fill="black"/>
<path d="M9.78363 2.00686C9.20237 2.39077 8.63297 2.76606 8.0625 3.14242C7.97946 3.05507 7.90398 2.96987 7.82202 2.89115C7.14586 2.23979 6.32628 1.97451 5.40101 1.99392C3.60979 2.03059 2.46453 3.26751 2.18306 4.81825C1.9814 5.92361 2.17228 6.95995 2.83657 7.88091C3.4092 8.67245 4.20614 9.08116 5.17455 9.16312C5.78168 9.21488 6.36833 9.13401 6.92802 8.8849C7.32272 8.70912 7.66349 8.46001 7.95358 8.13972C7.98162 8.10845 8.00966 8.07718 8.03878 8.0459C8.04417 8.04051 8.05279 8.03727 8.06681 8.02865C8.63297 8.40177 9.20129 8.77706 9.78255 9.16097C9.72971 9.22459 9.68549 9.2839 9.63696 9.3389C8.7516 10.3494 7.63545 10.9295 6.30902 11.1064C5.12602 11.2638 3.98507 11.1107 2.91961 10.5564C1.52632 9.83173 0.630168 8.69078 0.229003 7.1821C-0.199121 5.57313 -0.040597 4.017 0.819966 2.57518C1.66543 1.15924 2.93687 0.33642 4.56094 0.0808397C5.93913 -0.136997 7.24831 0.0786823 8.45288 0.809837C8.9662 1.1215 9.40403 1.51835 9.78363 2.00578V2.00686Z" fill="black"/>
<path d="M36.6422 2.00686C36.0598 2.39077 35.4915 2.76606 34.9351 3.13271C34.7388 2.95693 34.5619 2.7736 34.3614 2.62263C33.7402 2.15568 33.0285 1.97775 32.2596 1.99392C30.4824 2.03059 29.3231 3.25241 29.0395 4.83119C28.841 5.93655 29.0341 6.97397 29.7038 7.89169C30.2764 8.67677 31.0701 9.08332 32.0353 9.16205C32.8699 9.22999 33.6485 9.06607 34.3333 8.56677C34.5468 8.41148 34.7323 8.21952 34.9394 8.03727C35.4926 8.40285 36.062 8.77813 36.6616 9.17391C36.433 9.40469 36.2281 9.63762 35.9962 9.84144C35.1087 10.6222 34.0648 11.0395 32.8915 11.1388C31.605 11.2466 30.3961 10.9996 29.3091 10.2847C28.0592 9.46292 27.3011 8.29501 27.0045 6.83917C26.6993 5.34451 26.8816 3.907 27.6731 2.58596C28.5229 1.16679 29.7922 0.338577 31.4216 0.0808397C32.7998 -0.136997 34.109 0.0786823 35.3136 0.809838C35.8269 1.1215 36.2637 1.51835 36.6443 2.00578L36.6422 2.00686Z" fill="black"/>
<path d="M25.8108 9.02535V10.9525H19.5798V0.194336H21.6525V0.372271C21.6525 3.19984 21.6525 6.0274 21.6525 8.85497C21.6525 8.96784 21.7093 9.02427 21.8229 9.02427C23.0965 9.02427 24.3701 9.02427 25.6448 9.02427H25.8119L25.8108 9.02535Z" fill="black"/>
<path d="M40.2375 10.9568H38.1724V0.194336H40.2375V10.9568Z" fill="black"/>
</svg>
